<?xml version="1.0" encoding="UTF-8"?>
<svg width="1200pt" height="1200pt" version="1.1" viewBox="0 0 1200 1200" xmlns="http://www.w3.org/2000/svg">
 <path d="m950.65 706.96-26.918-17 143.09-56.672-36.836-8.5 116.18-99.172-42.504-1.418 83.59-113.34-41.086 8.5 34.004-134.59-444.86 205.43 38.254 82.172-43.918 39.668c14.168 42.504-1.418 42.504 0 75.09 1.418 62.336 189.85 28.336 221.02 19.836zm-300.36 97.758c-35.418-17 4.25-66.59 34.004-66.59 26.918 0 66.59 42.504 35.418 65.172l-21.25-25.5-14.168 29.754-14.168-29.754zm-100.59 0c35.418-17-5.668-66.59-34.004-66.59-26.918 0-66.59 42.504-35.418 65.172l21.25-25.5 14.168 29.754 14.168-29.754zm-46.754-317.36c29.754 14.168 58.086 25.5 86.422 42.504-1.418-25.5-1.418-22.668-17-34.004l-103.43-65.172c-15.586 25.5 8.5 45.336 34.004 56.672zm194.1 0c-31.168 14.168-58.086 25.5-86.422 42.504 1.418-25.5 0-22.668 17-34.004l102.01-65.172c17 25.5-7.082 45.336-32.586 56.672zm-178.51 34.004c-21.25 56.672 39.668 73.672 59.504 34.004-24.086-24.086-4.25 2.832-38.254-2.832-18.418-22.668 8.5-24.086-21.25-31.168zm80.754 34.004c-22.668 17-15.586 35.418-2.832 55.254l2.832 5.668 2.832-5.668c12.75-19.836 19.836-38.254-2.832-55.254zm82.172-34.004c19.836 56.672-39.668 73.672-59.504 34.004 22.668-24.086 4.25 2.832 38.254-2.832 17-22.668-9.918-24.086 21.25-31.168zm-433.53 185.6 28.336-17-143.09-56.672 35.418-8.5-116.18-99.172 43.918-1.418-83.59-113.34 39.668 8.5-32.586-134.59 444.86 205.43-38.254 82.172 43.918 39.668c-14.168 42.504 1.418 42.504 0 75.09-2.832 62.336-189.85 28.336-222.43 19.836zm133.18 120.43 111.93-116.18c-7.082-21.25-15.586-56.672-14.168-77.922 1.418-14.168 8.5-19.836 14.168-25.5l-42.504-36.836c11.336-28.336 24.086-60.922 41.086-86.422 36.836 17 69.422 31.168 103.43 52.422-1.418-31.168 0-28.336-19.836-42.504l-59.504-36.836c14.168-12.75 34.004-38.254 42.504-49.586 8.5-9.918 28.336 19.836 41.086 19.836 14.168 0 34.004-29.754 42.504-19.836 9.918 12.75 28.336 36.836 41.086 49.586l-58.086 36.836c-19.836 14.168-19.836 11.336-21.25 42.504 35.418-21.25 68.004-35.418 104.84-52.422 17 25.5 29.754 58.086 41.086 86.422l-42.504 36.836c5.668 5.668 11.336 11.336 12.75 25.5 2.832 21.25-5.668 56.672-12.75 77.922l111.93 116.18-53.836 14.168c-18.418 5.668-14.168 43.918-15.586 62.336l-56.672-21.25c-19.836-5.668-25.5 14.168-39.668 31.168l-53.836-41.086-53.836 41.086c-12.75-17-19.836-36.836-38.254-31.168l-56.672 21.25c-1.418-18.418 2.832-56.672-17-62.336l-52.422-14.168z" fill-rule="evenodd"/>
</svg>
